<?xml version="1.0" encoding="iso-8859-1"?>
<!-- Generator: Adobe Illustrator 19.0.0, SVG Export Plug-In . SVG Version: 6.00 Build 0)  -->
<svg xmlns="http://www.w3.org/2000/svg" xmlns:xlink="http://www.w3.org/1999/xlink" version="1.1" id="Capa_1" x="0px" y="0px" viewBox="0 0 512.002 512.002" style="enable-background:new 0 0 512.002 512.002;" xml:space="preserve" width="512px" height="512px">
<g>
	<g>
		<path d="M425.935,500.004l-68.267-153.6c-1.374-3.089-4.42-5.069-7.799-5.069H162.135c-3.371,0-6.426,1.98-7.791,5.069    l-68.267,153.6c-1.178,2.637-0.93,5.692,0.64,8.115c1.57,2.423,4.267,3.883,7.151,3.883h76.8c3.439,0,6.554-2.065,7.876-5.248    l26.291-62.993c8.61-20.753,28.681-34.159,51.149-34.159c0.026-0.009,0.026-0.009,0.043,0c22.46,0,42.53,13.406,51.149,34.176    l26.283,62.976c1.323,3.183,4.437,5.248,7.876,5.248h76.8c2.893,0,5.589-1.459,7.159-3.883    C426.865,505.696,427.112,502.65,425.935,500.004z M347.018,494.935l-24.09-57.711c-11.264-27.145-37.521-44.689-66.91-44.689    c-0.017,0-0.026,0-0.043,0c-29.38,0-55.646,17.536-66.901,44.672l-24.09,57.728h-57.984l60.681-136.533H344.33l60.672,136.533    H347.018z" fill="#afafaf"/>
	</g>
</g>
<g>
	<g>
		<path d="M349.869,307.202H162.135c-4.71,0-8.533,3.814-8.533,8.533v34.133h17.067v-25.6h170.667v25.6h17.067v-34.133    C358.402,311.017,354.587,307.202,349.869,307.202z" fill="#afafaf"/>
	</g>
</g>
<g>
	<g>
		<path d="M306.912,185.534c-0.99-3.729-4.378-6.332-8.243-6.332h-85.333c-3.866,0-7.253,2.603-8.252,6.332l-34.133,128    l16.495,4.403l32.444-121.668h72.218l32.452,121.668l16.486-4.403L306.912,185.534z" fill="#afafaf"/>
	</g>
</g>
<g>
	<g>
		<path d="M264.177,227.953c-1.084-3.61-4.412-6.084-8.175-6.084c-3.763,0-7.091,2.475-8.175,6.084l-25.6,85.333l16.35,4.898    l17.425-58.086l17.425,58.086l16.35-4.898L264.177,227.953z" fill="#afafaf"/>
	</g>
</g>
<g>
	<g>
		<path d="M298.669,145.069h-85.333c-4.71,0-8.533,3.823-8.533,8.533v34.133c0,4.71,3.823,8.533,8.533,8.533h85.333    c4.719,0,8.533-3.823,8.533-8.533v-34.133C307.202,148.892,303.387,145.069,298.669,145.069z M290.135,179.202h-68.267v-17.067    h68.267V179.202z" fill="#afafaf"/>
	</g>
</g>
<g>
	<g>
		<path d="M284.077,58.566c-1.929-13.935-13.995-24.431-28.041-24.431c-0.017,0-0.034,0-0.051,0    c-14.054,0-26.12,10.496-28.04,24.294l-14.507,93.867l16.87,2.611l14.524-93.995c0.768-5.538,5.564-9.711,11.17-9.711    c0,0,0,0,0.009,0h0.009c5.589,0,10.394,4.173,11.179,9.839l14.507,93.867l16.862-2.611L284.077,58.566z" fill="#afafaf"/>
	</g>
</g>
<g>
	<g>
		<rect x="247.469" y="0.002" width="17.067" height="42.667" fill="#afafaf"/>
	</g>
</g>
<g>
	<g>
		<rect x="230.402" y="68.269" width="42.667" height="17.067" fill="#afafaf"/>
	</g>
</g>
<g>
	<g>
		<rect x="0.002" y="494.935" width="196.267" height="17.067" fill="#afafaf"/>
	</g>
</g>
<g>
	<g>
		<rect x="315.735" y="494.935" width="119.467" height="17.067" fill="#afafaf"/>
	</g>
</g>
<g>
	<g>
		<path d="M145.069,102.402H8.535c-4.71,0-8.533,3.823-8.533,8.533v119.467c0,4.71,3.823,8.533,8.533,8.533h136.533    c4.71,0,8.533-3.823,8.533-8.533V110.935C153.602,106.225,149.779,102.402,145.069,102.402z M136.535,221.869H17.069v-102.4    h119.467V221.869z" fill="#afafaf"/>
	</g>
</g>
<g>
	<g>
		<path d="M151.102,104.902l-34.133-34.133c-1.596-1.604-3.772-2.5-6.033-2.5H42.669c-2.261,0-4.437,0.896-6.033,2.5L2.502,104.902    c-2.44,2.441-3.174,6.11-1.852,9.301c1.323,3.183,4.437,5.265,7.885,5.265h136.533c3.448,0,6.562-2.082,7.885-5.265    C154.276,111.012,153.542,107.343,151.102,104.902z M29.135,102.402l17.067-17.067h61.201l17.067,17.067H29.135z" fill="#afafaf"/>
	</g>
</g>
<g>
	<g>
		<path d="M76.802,136.535c-18.825,0-34.133,15.309-34.133,34.133s15.309,34.133,34.133,34.133s34.133-15.309,34.133-34.133    S95.626,136.535,76.802,136.535z M76.802,187.735c-9.412,0-17.067-7.654-17.067-17.067c0-9.412,7.654-17.067,17.067-17.067    c9.412,0,17.067,7.654,17.067,17.067C93.869,180.081,86.214,187.735,76.802,187.735z" fill="#afafaf"/>
	</g>
</g>
<g>
	<g>
		<path d="M128.002,221.869h-102.4c-4.71,0-8.533,3.823-8.533,8.533v281.6h17.067V238.935h85.333v187.733h17.067V230.402    C136.535,225.692,132.712,221.869,128.002,221.869z" fill="#afafaf"/>
	</g>
</g>
<g>
	<g>
		<path d="M110.935,34.135H42.669c-4.71,0-8.533,3.823-8.533,8.533v34.133c0,4.71,3.823,8.533,8.533,8.533h68.267    c4.71,0,8.533-3.823,8.533-8.533V42.669C119.469,37.958,115.646,34.135,110.935,34.135z M102.402,68.269h-51.2V51.202h51.2V68.269    z" fill="#afafaf"/>
	</g>
</g>
<g>
	<g>
		<path d="M116.968,36.636L82.835,2.502c-3.337-3.336-8.73-3.336-12.066,0L36.635,36.636c-2.441,2.441-3.174,6.11-1.852,9.301    c1.323,3.183,4.437,5.265,7.885,5.265h68.267c3.447,0,6.562-2.082,7.885-5.265C120.143,42.746,119.409,39.076,116.968,36.636z     M63.268,34.135l13.534-13.534l13.534,13.534H63.268z" fill="#afafaf"/>
	</g>
</g>
<g>
	<g>
		<rect x="51.202" y="256.002" width="17.067" height="51.2" fill="#afafaf"/>
	</g>
</g>
<g>
	<g>
		<rect x="85.335" y="256.002" width="17.067" height="51.2" fill="#afafaf"/>
	</g>
</g>
<g>
	<g>
		<rect x="51.202" y="460.802" width="17.067" height="51.2" fill="#afafaf"/>
	</g>
</g>
<g>
	<g>
		<rect x="85.335" y="460.802" width="17.067" height="51.2" fill="#afafaf"/>
	</g>
</g>
<g>
	<g>
		<rect x="51.202" y="392.535" width="17.067" height="51.2" fill="#afafaf"/>
	</g>
</g>
<g>
	<g>
		<rect x="85.335" y="392.535" width="17.067" height="51.2" fill="#afafaf"/>
	</g>
</g>
<g>
	<g>
		<rect x="51.202" y="324.269" width="17.067" height="51.2" fill="#afafaf"/>
	</g>
</g>
<g>
	<g>
		<rect x="85.335" y="324.269" width="17.067" height="51.2" fill="#afafaf"/>
	</g>
</g>
<g>
	<g>
		<path d="M486.402,51.202H349.869c-4.719,0-8.533,3.823-8.533,8.533v290.133h17.067v-281.6h119.467v324.267h-102.4v17.067h110.933    c4.719,0,8.533-3.814,8.533-8.533V59.735C494.935,55.025,491.121,51.202,486.402,51.202z" fill="#afafaf"/>
	</g>
</g>
<g>
	<g>
		<rect x="332.802" y="119.469" width="170.667" height="17.067" fill="#afafaf"/>
	</g>
</g>
<g>
	<g>
		<path d="M418.135,85.335c-4.719,0-8.533,3.823-8.533,8.533v34.133c0,4.71,3.814,8.533,8.533,8.533s8.533-3.823,8.533-8.533V93.869    C426.669,89.158,422.854,85.335,418.135,85.335z" fill="#afafaf"/>
	</g>
</g>
<g>
	<g>
		<path d="M384.002,85.335c-4.719,0-8.533,3.823-8.533,8.533v34.133c0,4.71,3.814,8.533,8.533,8.533    c4.719,0,8.533-3.823,8.533-8.533V93.869C392.535,89.158,388.721,85.335,384.002,85.335z" fill="#afafaf"/>
	</g>
</g>
<g>
	<g>
		<path d="M452.269,85.335c-4.719,0-8.533,3.823-8.533,8.533v34.133c0,4.71,3.814,8.533,8.533,8.533    c4.719,0,8.533-3.823,8.533-8.533V93.869C460.802,89.158,456.988,85.335,452.269,85.335z" fill="#afafaf"/>
	</g>
</g>
<g>
	<g>
		<path d="M469.335,0.002h-102.4c-4.719,0-8.533,3.823-8.533,8.533v51.2c0,4.71,3.814,8.533,8.533,8.533h102.4    c4.719,0,8.533-3.823,8.533-8.533v-51.2C477.869,3.825,474.054,0.002,469.335,0.002z M460.802,51.202h-85.333V17.069h85.333    V51.202z" fill="#afafaf"/>
	</g>
</g>
<g>
	<g>
		<path d="M401.069,34.135c-4.719,0-8.533,3.823-8.533,8.533v17.067c0,4.71,3.814,8.533,8.533,8.533    c4.719,0,8.533-3.823,8.533-8.533V42.669C409.602,37.958,405.788,34.135,401.069,34.135z" fill="#afafaf"/>
	</g>
</g>
<g>
	<g>
		<path d="M435.202,34.135c-4.719,0-8.533,3.823-8.533,8.533v8.533c0,4.71,3.814,8.533,8.533,8.533s8.533-3.823,8.533-8.533v-8.533    C443.735,37.958,439.921,34.135,435.202,34.135z" fill="#afafaf"/>
	</g>
</g>
<g>
	<g>
		<path d="M503.469,392.535h-128v17.067h119.467v102.4h17.067V401.069C512.002,396.35,508.188,392.535,503.469,392.535z" fill="#afafaf"/>
	</g>
</g>
<g>
	<g>
		<path d="M418.135,426.669c-14.114,0-25.6,11.486-25.6,25.6v13.056h17.067v-13.056c0-4.71,3.823-8.533,8.533-8.533    s8.533,3.823,8.533,8.533v51.2h17.067v-51.2C443.735,438.155,432.249,426.669,418.135,426.669z" fill="#afafaf"/>
	</g>
</g>
<g>
	<g>
		<rect x="418.135" y="494.935" width="85.333" height="17.067" fill="#afafaf"/>
	</g>
</g>
<g>
	<g>
		<path d="M486.402,426.669c-14.114,0-25.6,11.486-25.6,25.6v51.2h17.067v-51.2c0-4.71,3.823-8.533,8.533-8.533    s8.533,3.823,8.533,8.533v51.2h17.067v-51.2C512.002,438.155,500.516,426.669,486.402,426.669z" fill="#afafaf"/>
	</g>
</g>
<g>
	<g>
		<rect x="332.802" y="187.735" width="170.667" height="17.067" fill="#afafaf"/>
	</g>
</g>
<g>
	<g>
		<path d="M418.135,153.602c-4.719,0-8.533,3.823-8.533,8.533v34.133c0,4.71,3.814,8.533,8.533,8.533s8.533-3.823,8.533-8.533    v-34.133C426.669,157.425,422.854,153.602,418.135,153.602z" fill="#afafaf"/>
	</g>
</g>
<g>
	<g>
		<path d="M384.002,153.602c-4.719,0-8.533,3.823-8.533,8.533v34.133c0,4.71,3.814,8.533,8.533,8.533    c4.719,0,8.533-3.823,8.533-8.533v-34.133C392.535,157.425,388.721,153.602,384.002,153.602z" fill="#afafaf"/>
	</g>
</g>
<g>
	<g>
		<path d="M452.269,153.602c-4.719,0-8.533,3.823-8.533,8.533v34.133c0,4.71,3.814,8.533,8.533,8.533    c4.719,0,8.533-3.823,8.533-8.533v-34.133C460.802,157.425,456.988,153.602,452.269,153.602z" fill="#afafaf"/>
	</g>
</g>
<g>
	<g>
		<rect x="332.802" y="256.002" width="170.667" height="17.067" fill="#afafaf"/>
	</g>
</g>
<g>
	<g>
		<path d="M418.135,221.869c-4.719,0-8.533,3.823-8.533,8.533v34.133c0,4.719,3.814,8.533,8.533,8.533s8.533-3.814,8.533-8.533    v-34.133C426.669,225.692,422.854,221.869,418.135,221.869z" fill="#afafaf"/>
	</g>
</g>
<g>
	<g>
		<path d="M384.002,221.869c-4.719,0-8.533,3.823-8.533,8.533v34.133c0,4.719,3.814,8.533,8.533,8.533    c4.719,0,8.533-3.814,8.533-8.533v-34.133C392.535,225.692,388.721,221.869,384.002,221.869z" fill="#afafaf"/>
	</g>
</g>
<g>
	<g>
		<path d="M452.269,221.869c-4.719,0-8.533,3.823-8.533,8.533v34.133c0,4.719,3.814,8.533,8.533,8.533    c4.719,0,8.533-3.814,8.533-8.533v-34.133C460.802,225.692,456.988,221.869,452.269,221.869z" fill="#afafaf"/>
	</g>
</g>
<g>
	<g>
		<rect x="349.869" y="324.269" width="153.6" height="17.067" fill="#afafaf"/>
	</g>
</g>
<g>
	<g>
		<path d="M418.135,290.135c-4.719,0-8.533,3.814-8.533,8.533v34.133c0,4.719,3.814,8.533,8.533,8.533s8.533-3.814,8.533-8.533    v-34.133C426.669,293.95,422.854,290.135,418.135,290.135z" fill="#afafaf"/>
	</g>
</g>
<g>
	<g>
		<path d="M384.002,290.135c-4.719,0-8.533,3.814-8.533,8.533v34.133c0,4.719,3.814,8.533,8.533,8.533    c4.719,0,8.533-3.814,8.533-8.533v-34.133C392.535,293.95,388.721,290.135,384.002,290.135z" fill="#afafaf"/>
	</g>
</g>
<g>
	<g>
		<path d="M452.269,290.135c-4.719,0-8.533,3.814-8.533,8.533v34.133c0,4.719,3.814,8.533,8.533,8.533    c4.719,0,8.533-3.814,8.533-8.533v-34.133C460.802,293.95,456.988,290.135,452.269,290.135z" fill="#afafaf"/>
	</g>
</g>
<g>
	<g>
		<rect x="366.935" y="392.535" width="136.533" height="17.067" fill="#afafaf"/>
	</g>
</g>
<g>
	<g>
		<path d="M418.135,358.402c-4.719,0-8.533,3.814-8.533,8.533v34.133c0,4.719,3.814,8.533,8.533,8.533s8.533-3.814,8.533-8.533    v-34.133C426.669,362.217,422.854,358.402,418.135,358.402z" fill="#afafaf"/>
	</g>
</g>
<g>
	<g>
		<path d="M384.002,358.402c-4.719,0-8.533,3.814-8.533,8.533v34.133c0,4.719,3.814,8.533,8.533,8.533    c4.719,0,8.533-3.814,8.533-8.533v-34.133C392.535,362.217,388.721,358.402,384.002,358.402z" fill="#afafaf"/>
	</g>
</g>
<g>
	<g>
		<path d="M452.269,358.402c-4.719,0-8.533,3.814-8.533,8.533v34.133c0,4.719,3.814,8.533,8.533,8.533    c4.719,0,8.533-3.814,8.533-8.533v-34.133C460.802,362.217,456.988,358.402,452.269,358.402z" fill="#afafaf"/>
	</g>
</g>
<g>
</g>
<g>
</g>
<g>
</g>
<g>
</g>
<g>
</g>
<g>
</g>
<g>
</g>
<g>
</g>
<g>
</g>
<g>
</g>
<g>
</g>
<g>
</g>
<g>
</g>
<g>
</g>
<g>
</g>
</svg>
