<?xml version="1.0" encoding="iso-8859-1"?>
<!-- Generator: Adobe Illustrator 19.0.0, SVG Export Plug-In . SVG Version: 6.00 Build 0)  -->
<svg xmlns="http://www.w3.org/2000/svg" xmlns:xlink="http://www.w3.org/1999/xlink" version="1.1" id="Capa_1" x="0px" y="0px" viewBox="0 0 512.011 512.011" style="enable-background:new 0 0 512.011 512.011;" xml:space="preserve" width="512px" height="512px">
<g>
	<g>
		<path d="M490.18,148.109c-35.558-13.38-74.445-12.646-109.278,1.997L111.829,255.041l-64.64-40.397    c-1.963-1.229-4.335-1.604-6.588-1.041l-34.133,8.533c-2.62,0.657-4.779,2.517-5.811,5.009c-1.041,2.5-0.828,5.333,0.563,7.654    l51.2,85.333c1.536,2.56,4.318,4.139,7.313,4.139H204.8c1.084,0,2.159-0.205,3.166-0.589l283.23-113.067    c0.034-0.017,0.077-0.034,0.12-0.051c12.732-5.308,20.864-17.655,20.693-31.454C511.829,165.347,503.04,152.888,490.18,148.109z     M484.796,194.77L203.162,307.205H64.572l-42.786-71.322l19.439-4.855l65.195,40.738c2.287,1.425,5.111,1.698,7.62,0.717    l273.271-106.581c30.976-13.013,65.374-13.679,96.887-1.826c6.332,2.355,10.65,8.474,10.735,15.232    C495.019,186.083,491.042,192.141,484.796,194.77z" fill="#afafaf"/>
	</g>
</g>
<g>
	<g>
		<path d="M328.269,186.441l9.054-14.473L64.256,1.302c-2.159-1.34-4.804-1.664-7.219-0.862l-51.2,17.067    c-2.893,0.973-5.052,3.405-5.666,6.391c-0.606,2.987,0.427,6.076,2.705,8.098l221.867,196.267l11.315-12.783L25.276,29.018    l33.348-11.11L328.269,186.441z" fill="#afafaf"/>
	</g>
</g>
<g>
	<g>
		
			<rect x="433.605" y="153.506" transform="matrix(0.9305 -0.3663 0.3663 0.9305 -27.623 178.4901)" width="45.858" height="17.058" fill="#afafaf"/>
	</g>
</g>
<g>
	<g>
		<g>
			<polygon points="270.592,227.674 276.907,243.546 292.693,237.317 286.464,221.359    " fill="#afafaf"/>
			<polygon points="302.336,215.13 308.565,231.002 324.267,224.773 318.123,208.901    " fill="#afafaf"/>
			
				<rect x="241.459" y="236.429" transform="matrix(-0.3653 -0.9309 0.9309 -0.3653 113.2921 567.1495)" width="17.051" height="17.051" fill="#afafaf"/>
			<polygon points="413.269,171.439 397.397,177.669 403.627,193.541 419.499,187.738    " fill="#afafaf"/>
			<polygon points="365.653,190.213 371.968,206.085 387.84,199.855 381.525,183.983    " fill="#afafaf"/>
			<polygon points="333.995,202.671 340.224,218.543 356.096,212.143 349.867,196.271    " fill="#afafaf"/>
		</g>
	</g>
</g>
<g>
	<g>
		<path d="M477.867,366.938h-34.133c-4.719,0-8.533,3.814-8.533,8.533v128c0,4.719,3.814,8.533,8.533,8.533h34.133    c4.719,0,8.533-3.814,8.533-8.533v-128C486.4,370.753,482.586,366.938,477.867,366.938z M469.333,494.938h-17.067V384.005h17.067    V494.938z" fill="#afafaf"/>
	</g>
</g>
<g>
	<g>
		<path d="M510.063,327.395c-1.621-1.971-4.036-3.123-6.596-3.123h-85.333c-2.56,0-4.975,1.152-6.596,3.123    c-1.613,1.971-2.27,4.574-1.766,7.083l8.533,42.667c0.794,3.985,4.292,6.861,8.363,6.861h68.267c4.07,0,7.569-2.876,8.363-6.861    l8.533-42.667C512.333,331.969,511.676,329.366,510.063,327.395z M487.936,366.938h-54.281l-5.112-25.6h64.512L487.936,366.938z" fill="#afafaf"/>
	</g>
</g>
<g>
	<g>
		<path d="M477.867,290.138h-34.133c-4.719,0-8.533,3.814-8.533,8.533v34.133c0,4.719,3.814,8.533,8.533,8.533h34.133    c4.719,0,8.533-3.814,8.533-8.533v-34.133C486.4,293.953,482.586,290.138,477.867,290.138z M469.333,324.271h-17.067v-17.067    h17.067V324.271z" fill="#afafaf"/>
	</g>
</g>
<g>
	<g>
		<rect x="452.267" y="264.538" width="17.067" height="34.133" fill="#afafaf"/>
	</g>
</g>
<g>
	<g>
		<rect y="494.938" width="512" height="17.067" fill="#afafaf"/>
	</g>
</g>
<g>
	<g>
		<path d="M409.6,426.671H170.667c-4.71,0-8.533,3.814-8.533,8.533v68.267c0,4.719,3.823,8.533,8.533,8.533H409.6    c4.719,0,8.533-3.814,8.533-8.533v-68.267C418.133,430.486,414.319,426.671,409.6,426.671z M401.067,494.938H179.2v-51.2h221.867    V494.938z" fill="#afafaf"/>
	</g>
</g>
<g>
	<g>
		<rect x="366.933" y="460.805" width="17.067" height="17.067" fill="#afafaf"/>
	</g>
</g>
<g>
	<g>
		<rect x="332.8" y="460.805" width="17.067" height="17.067" fill="#afafaf"/>
	</g>
</g>
<g>
	<g>
		<rect x="298.667" y="460.805" width="17.067" height="17.067" fill="#afafaf"/>
	</g>
</g>
<g>
	<g>
		<rect x="264.533" y="460.805" width="17.067" height="17.067" fill="#afafaf"/>
	</g>
</g>
<g>
	<g>
		<rect x="230.4" y="460.805" width="17.067" height="17.067" fill="#afafaf"/>
	</g>
</g>
<g>
	<g>
		<rect x="196.267" y="460.805" width="17.067" height="17.067" fill="#afafaf"/>
	</g>
</g>
<g>
	<g>
		<path d="M170.667,452.271h-102.4c-4.71,0-8.533,3.814-8.533,8.533v42.667c0,4.719,3.823,8.533,8.533,8.533h102.4    c4.71,0,8.533-3.814,8.533-8.533v-42.667C179.2,456.086,175.377,452.271,170.667,452.271z M162.133,494.938H76.8v-25.6h85.333    V494.938z" fill="#afafaf"/>
	</g>
</g>
<g>
</g>
<g>
</g>
<g>
</g>
<g>
</g>
<g>
</g>
<g>
</g>
<g>
</g>
<g>
</g>
<g>
</g>
<g>
</g>
<g>
</g>
<g>
</g>
<g>
</g>
<g>
</g>
<g>
</g>
</svg>
